<svg width="20" height="20" viewBox="0 0 20 20" fill="none" xmlns="http://www.w3.org/2000/svg">
<path d="M18.4149 10.0625C18.4149 5.92672 7.39587 -0.69401 4.09134 1.79387C0.786808 4.27883 0.521395 16.2457 4.09134 18.334C7.66129 20.4194 18.4149 14.1953 18.4149 10.0625Z" fill="#F75961"/>
<path d="M9.92452 13.3496C8.57996 13.3496 8.28246 12.5242 8.28246 11.5501V9.17887H7.87122C7.38414 9.17887 7.29956 8.84054 7.29956 8.67138C7.29956 8.50221 7.38414 8.16388 7.87122 8.16388H8.28538V7.28598C8.28538 6.70265 8.69954 6.59766 8.90954 6.59766C9.12245 6.59766 9.53369 6.70265 9.53369 7.28598V8.16097H10.327C10.8141 8.16097 10.8987 8.49929 10.8987 8.66846C10.8987 8.83762 10.8141 9.17595 10.327 9.17595H9.53369V11.5384C9.53369 12.0372 9.70286 12.2997 10.0208 12.2997C10.0733 12.2997 10.1491 12.288 10.222 12.2792C10.3066 12.2676 10.327 12.2676 10.3708 12.2676C10.6887 12.2676 10.8578 12.5009 10.8578 12.743C10.8578 12.9442 10.7412 13.1134 10.5516 13.2096C10.3795 13.2971 10.1579 13.3496 9.92452 13.3496Z" fill="white"/>
</svg>
